HIERARCHY
ROOT root
{
	OFFSET	0	13.1	24.9
	CHANNELS 6  Xposition Yposition Zposition Xrotation Yrotation Zrotation
	JOINT spine_1
	{
		OFFSET	0	9.99999	0
		CHANNELS 3  Xrotation Yrotation Zrotation
		JOINT spine_2
		{
			OFFSET	0	112	-10
			CHANNELS 3  Xrotation Yrotation Zrotation
			JOINT spine_3
			{
				OFFSET	0	206.5	19.3
				CHANNELS 3  Xrotation Yrotation Zrotation
				JOINT spine_4
				{
					OFFSET	0	110.4	14.6
					CHANNELS 3  Xrotation Yrotation Zrotation
					JOINT neck_1
					{
						OFFSET	0	71.8	-50.3
						CHANNELS 3  Xrotation Yrotation Zrotation
						JOINT neck_2
						{
							OFFSET	0	86.2	-25.8
							CHANNELS 3  Xrotation Yrotation Zrotation
							JOINT head_ee
							{
								OFFSET	0	179.8	-8.7
								CHANNELS 3  Xrotation Yrotation Zrotation
								End Site
								{
									OFFSET	1	0	0
								}
							}
						}
					}
					JOINT left_clavicle
					{
						OFFSET	-43.2	22.4	-70.8
						CHANNELS 3  Xrotation Yrotation Zrotation
						JOINT left_shoulder
						{
							OFFSET	-93.9	-5.79999	48.7
							CHANNELS 3  Xrotation Yrotation Zrotation
							JOINT left_elbow
							{
								OFFSET	-291.4	-30.8	15.2
								CHANNELS 3  Xrotation Yrotation Zrotation
								JOINT left_lowarm_twist
								{
									OFFSET	-110.7	-3.89999	13.6
									CHANNELS 3  Xrotation Yrotation Zrotation
									JOINT left_hand
									{
										OFFSET	-110.7	-3.89999	13.6
										CHANNELS 3  Xrotation Yrotation Zrotation
										JOINT left_ee
										{
											OFFSET	-80.8	-5.10001	12.1
											CHANNELS 3  Xrotation Yrotation Zrotation
											End Site
											{
												OFFSET	1	0	0
											}
										}
									}
								}
							}
						}
					}
					JOINT right_clavicle
					{
						OFFSET	43.2	22.4	-70.8
						CHANNELS 3  Xrotation Yrotation Zrotation
						JOINT right_shoulder
						{
							OFFSET	93.9	-5.79999	48.7
							CHANNELS 3  Xrotation Yrotation Zrotation
							JOINT right_elbow
							{
								OFFSET	291.4	-30.8	15.2
								CHANNELS 3  Xrotation Yrotation Zrotation
								JOINT right_lowarm_twist
								{
									OFFSET	110.7	-3.89999	13.6
									CHANNELS 3  Xrotation Yrotation Zrotation
									JOINT right_hand
									{
										OFFSET	110.7	-3.89999	13.6
										CHANNELS 3  Xrotation Yrotation Zrotation
										JOINT right_ee
										{
											OFFSET	80.8	-5.10001	12.1
											CHANNELS 3  Xrotation Yrotation Zrotation
											End Site
											{
												OFFSET	1	0	0
											}
										}
									}
								}
							}
						}
					}
				}
			}
		}
	}
	JOINT left_hip
	{
		OFFSET	-82.8	-127.5	0.300001
		CHANNELS 3  Xrotation Yrotation Zrotation
		JOINT left_knee
		{
			OFFSET	-28.2	-396.7	2.2
			CHANNELS 3  Xrotation Yrotation Zrotation
			JOINT left_ankle
			{
				OFFSET	-11.7	-411.3	35.4
				CHANNELS 3  Xrotation Yrotation Zrotation
				JOINT left_toes
				{
					OFFSET	0	-60	-88.6
					CHANNELS 3  Xrotation Yrotation Zrotation
					JOINT left_foot_ee
					{
						OFFSET	-22.5	-16.5	-42.2
						CHANNELS 3  Xrotation Yrotation Zrotation
						End Site
						{
							OFFSET	1	0	0
						}
					}
				}
			}
		}
	}
	JOINT right_hip
	{
		OFFSET	82.8	-127.5	0.300001
		CHANNELS 3  Xrotation Yrotation Zrotation
		JOINT right_knee
		{
			OFFSET	28.2	-396.7	2.2
			CHANNELS 3  Xrotation Yrotation Zrotation
			JOINT right_ankle
			{
				OFFSET	11.7	-411.3	35.4
				CHANNELS 3  Xrotation Yrotation Zrotation
				JOINT right_toes
				{
					OFFSET	0	-60	-88.6
					CHANNELS 3  Xrotation Yrotation Zrotation
					JOINT right_foot_ee
					{
						OFFSET	22.5	-16.5	-42.2
						CHANNELS 3  Xrotation Yrotation Zrotation
						End Site
						{
							OFFSET	1	0	0
						}
					}
				}
			}
		}
	}
}
MOTION
Frames: 10
Frame Time: 0.02
2991.40376843 693.788 -1864.88129668 10.8846001127 27.661401294 2.14651859425 -4.93172 -0.475848 -2.67562 -4.92779 -0.30469 -2.70046 -4.90593 0.500208 -2.67118 -4.91588 0.07223 -2.71662 1.26365 12.0678 9.96272 1.57578 12.9909 11.9182 -0.0 0.0 -0.0 9.16973 -4.7858 18.0576 2.64602 -20.8956 54.0288 1.12013 -29.0241 0.289945 27.3851 0.139744 -3.46231 -1.4509 0.464123 -9.52583 -0.0 0.0 -0.0 3.75083 11.2773 -6.48903 -6.97609 21.4842 -63.1256 0.533361 14.8002 -0.0692729 21.3179 -0.252226 2.69581 0.462732 -5.46991 -5.32595 0.0 0.0 0.0 -0.790587 -31.0962 -4.60795 -12.9816 0.313227 1.96334 15.352 27.954 -2.28214 14.1691 -0.0 -0.0 -0.0 0.0 -0.0 12.7171 23.357 -16.1077 -61.3625 2.34889 -8.67381 32.5069 -24.1338 4.36896 28.0956 -0.0 -0.0 0.0 0.0 0.0 
2977.09115803 696.151 -1867.40628095 11.0442408806 27.3678225767 1.96149691146 -4.7304 -0.547126 -2.86828 -4.7259 -0.36358 -2.89725 -4.69903 0.491181 -2.87838 -4.71059 0.0306329 -2.91979 1.08248 12.1881 9.61334 1.38777 13.5516 11.5498 -0.0 0.0 -0.0 9.52072 -4.41899 18.7938 3.7632 -20.8011 52.9443 1.23352 -31.4256 0.347036 27.7128 0.131365 -3.50333 -1.76493 -0.545368 -12.1241 -0.0 0.0 -0.0 3.70168 11.6112 -6.36018 -8.71494 21.3273 -62.8802 0.50151 13.9519 -0.0613644 19.949 -0.266341 2.52154 0.19022 -7.75627 -4.46411 0.0 0.0 0.0 -3.45766 -30.3647 -4.42637 -9.51901 0.273359 1.43362 15.9382 28.0898 -2.36638 14.2732 -0.0 -0.0 -0.0 0.0 -0.0 14.8984 22.9123 -13.1853 -61.6325 2.37883 -8.7028 32.3239 -22.0595 4.30058 27.464 -0.0 -0.0 0.0 0.0 0.0 
2972.83323207 696.151 -1863.01497627 11.1716832753 28.5896534368 1.68986389907 -4.7304 -0.547126 -2.86828 -4.7259 -0.36358 -2.89725 -4.69903 0.491181 -2.87838 -4.71059 0.0306329 -2.91979 1.08248 12.1881 9.61334 1.38777 13.5516 11.5498 -0.0 0.0 -0.0 9.52072 -4.41899 18.7938 3.7632 -20.8011 52.9443 1.23352 -31.4256 0.347036 27.7128 0.131365 -3.50333 -1.76493 -0.545368 -12.1241 -0.0 0.0 -0.0 3.70168 11.6112 -6.36018 -8.71494 21.3273 -62.8802 0.50151 13.9519 -0.0613644 19.949 -0.266341 2.52154 0.19022 -7.75627 -4.46411 0.0 0.0 0.0 -3.45766 -30.3647 -4.42637 -9.51901 0.273359 1.43362 15.9382 28.0898 -2.36638 14.2732 -0.0 -0.0 -0.0 0.0 -0.0 14.8984 22.9123 -13.1853 -61.6325 2.37883 -8.7028 32.3239 -22.0595 4.30058 27.464 -0.0 -0.0 0.0 0.0 0.0 
2936.02728587 700.598 -1872.04492595 9.04610952531 27.4751627892 1.89105312527 -4.33732 -0.52275 -2.64004 -4.33351 -0.35376 -2.66793 -4.3102 0.416057 -2.65893 -4.32007 -0.00893492 -2.69125 -0.188296 12.4861 8.23099 0.087598 15.5824 10.131 -0.0 0.0 -0.0 9.80477 -4.78487 19.4018 6.50897 -21.2131 49.6179 1.37518 -34.2617 0.42389 28.7096 0.104432 -3.62782 -2.01295 -2.76962 -14.8625 -0.0 0.0 -0.0 3.45659 11.2982 -5.87264 -11.0818 21.1141 -62.5218 0.517458 14.3775 -0.0652671 18.0616 -0.278966 2.28081 -0.134759 -11.0939 -3.72486 0.0 0.0 0.0 -7.19977 -24.6946 -3.95762 1.80738 -0.0786352 -0.266182 12.6702 28.8891 -1.91268 12.5491 -0.0 -0.0 -0.0 0.0 -0.0 20.9928 23.8994 -12.5707 -58.2252 2.01142 -8.32701 31.5418 -20.622 4.18595 26.9113 -0.0 -0.0 0.0 0.0 0.0 
2849.7744497 694.454 -1949.56547761 7.17782383482 20.842723299 2.4768009288 -3.59164 -0.235438 -2.52871 -3.58809 -0.074105 -2.53856 -3.57992 0.616493 -2.46373 -3.58832 0.219788 -2.53012 -0.667305 13.3252 7.38644 -0.382164 17.9124 9.34636 -0.0 0.0 -0.0 10.5747 -0.0277348 20.849 10.4618 -19.2891 45.3169 2.24581 -48.0421 1.00099 21.4785 0.250298 -2.71623 -2.15212 -6.16764 -17.3991 -0.0 0.0 -0.0 2.45575 5.91456 -4.25616 -17.5429 21.5269 -61.0819 0.534952 14.8424 -0.0696799 17.0464 -0.282475 2.15119 -0.105386 -12.833 -4.61627 0.0 0.0 0.0 -10.5193 -7.77734 1.66203 0.652774 -0.0274301 -0.0964159 23.9822 25.6145 -3.39325 8.67722 -0.0 -0.0 -0.0 0.0 -0.0 22.9936 16.8483 -10.7757 -44.9109 0.808377 -6.67164 32.2961 -16.878 4.2052 28.7248 -0.0 -0.0 0.0 0.0 0.0 
2830.12178323 693.046 -1956.79587167 6.83330059575 20.8818458918 2.49601211323 -3.53076 -0.183161 -2.5164 -3.52724 -0.0227168 -2.52295 -3.52158 0.659289 -2.43545 -3.52976 0.266509 -2.50895 -0.943298 13.3132 5.7682 -0.676976 19.277 7.65284 -0.0 0.0 -0.0 10.5797 1.08794 20.7908 11.0339 -18.838 44.7203 2.53446 -51.4544 1.22139 22.3683 0.238574 -2.82929 -2.19659 -6.46894 -17.8511 -0.0 0.0 -0.0 2.41307 5.3399 -4.2185 -16.9599 22.2395 -61.4374 0.493021 13.7248 -0.0593341 16.8233 -0.282939 2.1227 -0.142846 -13.7511 -4.75023 0.0 0.0 0.0 -11.8094 -6.22566 2.02824 1.87273 -0.081636 -0.275761 21.3119 26.5592 -3.0683 10.2774 -0.0 -0.0 -0.0 0.0 -0.0 23.5069 13.6121 -9.70671 -41.9042 0.592336 -6.26277 31.6644 -18.7119 4.16556 26.9431 -0.0 -0.0 0.0 0.0 0.0 
2828.27061365 693.046 -1954.54754076 6.85029487405 21.2495668186 2.44873226509 -3.53076 -0.183161 -2.5164 -3.52724 -0.0227168 -2.52295 -3.52158 0.659289 -2.43545 -3.52976 0.266509 -2.50895 -0.943298 13.3132 5.7682 -0.676976 19.277 7.65284 -0.0 0.0 -0.0 10.5797 1.08794 20.7908 11.0339 -18.838 44.7203 2.53446 -51.4544 1.22139 22.3683 0.238574 -2.82929 -2.19659 -6.46894 -17.8511 -0.0 0.0 -0.0 2.41307 5.3399 -4.2185 -16.9599 22.2395 -61.4374 0.493021 13.7248 -0.0593341 16.8233 -0.282939 2.1227 -0.142846 -13.7511 -4.75023 0.0 0.0 0.0 -11.8094 -6.22566 2.02824 1.87273 -0.081636 -0.275761 21.3119 26.5592 -3.0683 10.2774 -0.0 -0.0 -0.0 0.0 -0.0 23.5069 13.6121 -9.70671 -41.9042 0.592336 -6.26277 31.6644 -18.7119 4.16556 26.9431 -0.0 -0.0 0.0 0.0 0.0 
2812.72227945 688.925 -1963.1754899 7.43655907661 21.5528049262 1.22864545702 -3.64157 -0.227898 -2.30332 -3.63862 -0.08091 -2.31314 -3.63123 0.550815 -2.24809 -3.63823 0.188957 -2.30683 0.205784 13.8454 5.25597 0.5266 20.3831 7.03378 -0.0 0.0 -0.0 10.0494 0.655013 19.7232 10.2265 -19.3406 44.0817 2.74359 -53.6452 1.38744 21.4237 0.250962 -2.70927 -1.88226 -4.46879 -14.7323 -0.0 0.0 -0.0 2.53348 5.20338 -4.47202 -17.4098 22.1724 -60.7652 0.474694 13.2329 -0.0550622 17.6444 -0.280686 2.22755 -0.19063 -14.5348 -4.76666 0.0 0.0 0.0 -13.1441 -4.44171 3.79248 1.56387 -0.0675511 -0.230463 25.2019 24.7204 -3.52752 9.93469 -0.0 -0.0 -0.0 0.0 -0.0 25.888 10.7968 -10.7042 -30.7555 -0.0143868 -4.66359 30.7916 -20.1468 4.09464 26.4615 -0.0 -0.0 0.0 0.0 0.0 
2792.54098843 683.732 -1970.90137722 6.19186924573 21.6716242968 1.71599230551 -3.35708 -0.347049 -2.34488 -3.35404 -0.197178 -2.3622 -3.34158 0.440405 -2.32916 -3.34915 0.0671374 -2.36946 0.341242 13.7144 5.10939 0.659944 20.237 6.84943 -0.0 0.0 -0.0 9.92449 -0.710434 19.5314 10.7629 -19.2452 43.5032 2.929 -55.4142 1.53847 21.143 0.254262 -2.67356 -2.09407 -3.47767 -15.7557 -0.0 0.0 -0.0 2.60471 5.88194 -4.55977 -18.7803 22.5371 -59.5879 0.501919 13.9629 -0.0614632 18.7147 -0.275495 2.36415 0.0139013 -12.5832 -5.27022 0.0 0.0 0.0 -12.0257 -2.20544 4.62487 -0.175277 0.00717786 0.0259402 27.3468 24.072 -3.77472 9.59424 -0.0 -0.0 -0.0 0.0 -0.0 24.2534 10.118 -9.23958 -21.0231 -0.282076 -3.19575 32.7107 -19.0132 4.28286 26.1702 -0.0 -0.0 0.0 0.0 0.0 
2779.37991133 681.201 -1985.94260255 5.44874364864 21.8613883117 1.59991297285 -3.12533 -0.371596 -2.27768 -3.12247 -0.225947 -2.29669 -3.10944 0.38594 -2.27529 -3.11666 0.0218556 -2.30767 0.704101 14.0873 5.14326 1.05227 20.7904 6.87767 -0.0 0.0 -0.0 10.0946 -1.81944 19.9317 10.6443 -19.702 43.532 3.05748 -56.5535 1.64496 20.7931 0.25813 -2.62904 -2.12835 -2.0455 -15.3287 -0.0 0.0 -0.0 2.8027 5.93536 -4.95553 -19.4381 22.1869 -59.7249 0.462518 12.9049 -0.0523089 19.4199 -0.27068 2.4541 0.120467 -11.5635 -5.54122 0.0 0.0 0.0 -12.2128 -0.803417 5.62055 -0.383142 0.0155868 0.0567311 29.6511 22.6235 -4.01396 9.20382 -0.0 -0.0 -0.0 0.0 -0.0 22.9081 9.47562 -8.6659 -11.1127 -0.295686 -1.67713 33.6375 -18.721 4.37545 26.1842 -0.0 -0.0 0.0 0.0 0.0 
